HIERARCHY
ROOT Hips
{
	OFFSET 0.00000 0.00000 0.00000
	CHANNELS 6 Xposition Yposition Zposition Zrotation Yrotation Xrotation 
	JOINT LHipJoint
	{
		OFFSET 0 0 0
		CHANNELS 3 Zrotation Yrotation Xrotation
		JOINT LeftUpLeg
		{
			OFFSET 1.70593 -1.62653 0.87602
			CHANNELS 3 Zrotation Yrotation Xrotation
			JOINT LeftLeg
			{
				OFFSET 2.32330 -6.38322 0.00000
				CHANNELS 3 Zrotation Yrotation Xrotation
				JOINT LeftFoot
				{
					OFFSET 2.45016 -6.73177 0.00000
					CHANNELS 3 Zrotation Yrotation Xrotation
					JOINT LeftToeBase
					{
						OFFSET 0.13029 -0.35798 1.96980
						CHANNELS 3 Zrotation Yrotation Xrotation
						End Site
						{
							OFFSET 0.00000 -0.00000 1.01270
						}
					}
				}
			}
		}
	}
	JOINT RHipJoint
	{
		OFFSET 0 0 0
		CHANNELS 3 Zrotation Yrotation Xrotation
		JOINT RightUpLeg
		{
			OFFSET -1.80599 -1.62652 0.87602
			CHANNELS 3 Zrotation Yrotation Xrotation
			JOINT RightLeg
			{
				OFFSET -2.45375 -6.74162 0.00000
				CHANNELS 3 Zrotation Yrotation Xrotation
				JOINT RightFoot
				{
					OFFSET -2.45828 -6.75406 0.00000
					CHANNELS 3 Zrotation Yrotation Xrotation
					JOINT RightToeBase
					{
						OFFSET -0.13801 -0.37917 1.88456
						CHANNELS 3 Zrotation Yrotation Xrotation
						End Site
						{
							OFFSET -0.00000 -0.00000 0.97281
						}
					}
				}
			}
		}
	}
	JOINT LowerBack
	{
		OFFSET 0 0 0
		CHANNELS 3 Zrotation Yrotation Xrotation
		JOINT Spine
		{
			OFFSET 0.01003 2.00576 -0.14267
			CHANNELS 3 Zrotation Yrotation Xrotation
			JOINT Spine1
			{
				OFFSET 0.00908 2.01191 0.01660
				CHANNELS 3 Zrotation Yrotation Xrotation
				JOINT Neck
				{
					OFFSET 0 0 0
					CHANNELS 3 Zrotation Yrotation Xrotation
					JOINT Neck1
					{
						OFFSET -0.05849 1.60301 0.18934
						CHANNELS 3 Zrotation Yrotation Xrotation
						JOINT Head
						{
							OFFSET 0.01775 1.59435 -0.07960
							CHANNELS 3 Zrotation Yrotation Xrotation
							End Site
							{
								OFFSET 0.01210 1.70732 -0.05248
							}
						}
					}
				}
				JOINT LeftShoulder
				{
					OFFSET 0 0 0
					CHANNELS 3 Zrotation Yrotation Xrotation
					JOINT LeftArm
					{
						OFFSET 3.15315 1.26460 0.30667
						CHANNELS 3 Zrotation Yrotation Xrotation
						JOINT LeftForeArm
						{
							OFFSET 4.97694 -0.00000 -0.00000
							CHANNELS 3 Zrotation Yrotation Xrotation
							JOINT LeftHand
							{
								OFFSET 3.14391 -0.00000 -0.00000
								CHANNELS 3 Zrotation Yrotation Xrotation
								JOINT LeftFingerBase
								{
									OFFSET 0 0 0
									CHANNELS 3 Zrotation Yrotation Xrotation
									JOINT LeftHandIndex1
									{
										OFFSET 0.59358 -0.00000 -0.00000
										CHANNELS 3 Zrotation Yrotation Xrotation
										End Site
										{
											OFFSET 0.47856 -0.00000 -0.00000
										}
									}
								}
								JOINT LThumb
								{
									OFFSET 0 0 0
									CHANNELS 3 Zrotation Yrotation Xrotation
									End Site
									{
										OFFSET 0.48587 -0.00000 0.48587
									}
								}
							}
						}
					}
				}
				JOINT RightShoulder
				{
					OFFSET 0 0 0
					CHANNELS 3 Zrotation Yrotation Xrotation
					JOINT RightArm
					{
						OFFSET -3.25568 1.35581 0.18982
						CHANNELS 3 Zrotation Yrotation Xrotation
						JOINT RightForeArm
						{
							OFFSET -4.90473 -0.00000 0.00000
							CHANNELS 3 Zrotation Yrotation Xrotation
							JOINT RightHand
							{
								OFFSET -3.21621 0.00006 -0.00004
								CHANNELS 3 Zrotation Yrotation Xrotation
								JOINT RightFingerBase
								{
									OFFSET 0 0 0
									CHANNELS 3 Zrotation Yrotation Xrotation
									JOINT RightHandIndex1
									{
										OFFSET -0.62353 -0.00000 -0.00000
										CHANNELS 3 Zrotation Yrotation Xrotation
										End Site
										{
											OFFSET -0.50270 -0.00000 -0.00000
										}
									}
								}
								JOINT RThumb
								{
									OFFSET 0 0 0
									CHANNELS 3 Zrotation Yrotation Xrotation
									End Site
									{
										OFFSET -0.51038 -0.00000 0.51038
									}
								}
							}
						}
					}
				}
			}
		}
	}
}
MOTION
Frames: 7
Frame Time: .0083333
6.8204 15.2423 -38.2013 0 0 0 0 0 0 -21 0 0 0 0 0 0 0 0 0 0 0 0 0 0 21 0 0 0 0 0 0 0 0 0 0 0 0 0 0 0 0 0 0 0 0 0 0 -16 0 0 21 0 0 11 0 0 0 -8 0 0 0 0 0 0 0 0 0 0 0 0 0 0 0 0 0 0 0 0 8 0 0 0 0 0 0 0 0 0 0 0 0 0 0 0 0 0
6.8204 15.2423 -38.2013 0.7356 -9.0139 8.1030 0.0000 0.0000 0.0000 -24.0154 -7.4269 -22.5715 3.7518 11.8225 35.1070 1.1290 -8.3402 -19.0294 0.3052 3.5520 9.8195 0.0000 0.0000 0.0000 18.1962 11.7095 -25.2977 -12.4503 -18.5746 67.4091 -0.4477 3.9496 -11.9066 -1.5966 7.9698 -22.6223 -2.0986 2.8601 -0.1492 -1.5202 3.7360 -3.4816 -0.5024 1.9011 -3.5304 -0.7161 -1.1928 -9.4982 1.2889 -1.7074 14.0907 0.3906 -0.7723 5.8407 0.0000 -0.0000 0.0000 -90.1258 -0.1089 2.3736 9.0620 -15.2592 -1.2164 -0.0000 0.0000 -4.1893 23.8759 -9.6080 -4.2252 -7.1250 0.0000 -0.0000 -2.2052 19.4958 1.3438 0.0000 -0.0000 0.0000 91.2221 -15.8302 24.2272 -15.5958 24.9696 -3.4736 0.0000 -0.0000 -2.1113 -21.4736 -35.1421 12.7584 7.1250 -0.0000 -0.0000 15.7643 -66.4471 -8.2391
6.8217 15.2749 -37.9570 1.3784 -9.0397 7.6623 0.0000 0.0000 0.0000 -25.2007 -6.6751 -21.1551 3.6307 11.6520 34.5117 1.3302 -5.7249 -20.6712 0.0917 -1.9528 -5.3751 0.0000 0.0000 0.0000 17.5827 11.9240 -26.4513 -12.1561 -18.4558 66.4826 -0.5103 4.0045 -12.7231 -1.4227 7.5429 -21.3341 -2.8179 2.7192 -0.1173 -1.5152 3.5365 -3.3330 -0.0890 1.8210 -3.4387 -1.0671 -1.1678 -8.5514 1.5495 -1.6537 13.2363 0.5407 -0.7531 5.4159 -0.0000 0.0000 0.0000 -89.8714 -1.1304 8.0277 9.8859 -16.5609 -1.4423 -0.0000 0.0000 -7.9912 24.1414 -9.2183 -4.1067 -7.1250 0.0000 -0.0000 -2.0005 19.8985 1.2009 -0.0000 0.0000 0.0000 91.2509 -16.7499 23.6189 -15.0652 24.2369 -3.2527 0.0000 -0.0000 -1.5616 -22.1152 -35.7917 13.3689 7.1250 -0.0000 -0.0000 15.6503 -67.2553 -8.4668
6.8368 15.2882 -37.7129 1.1634 -9.2579 7.1884 0.0000 0.0000 0.0000 -25.3670 -6.2658 -19.5058 3.5650 11.5578 34.1852 1.4403 -5.4540 -21.5604 0.1682 -2.6421 -7.2840 0.0000 0.0000 0.0000 17.8663 12.4939 -27.3105 -11.9032 -18.3494 65.6816 -0.6015 4.9911 -13.8079 -1.0296 6.4544 -18.1087 -2.4248 2.7089 -0.0612 -1.3771 3.5379 -3.0735 -0.1588 1.8096 -3.1850 -1.9926 -0.8488 -10.4856 2.5884 -1.2519 15.5081 1.0474 -0.5101 6.4705 0.0000 -0.0000 0.0000 -89.5519 -2.4318 12.9006 10.5449 -17.5874 -1.6358 -0.0000 0.0000 -10.7965 24.7932 -9.7018 -4.4511 -7.1250 0.0000 -0.0000 -1.5556 19.3166 0.9538 0.0000 -0.0000 0.0000 91.3998 -17.3692 21.9737 -14.2904 23.1484 -2.9413 0.0000 0.0000 0.4657 -21.0643 -35.1791 12.5112 7.1250 -0.0000 -0.0000 16.2954 -66.3633 -8.4916
6.8361 15.2830 -37.5267 1.3082 -8.6238 7.1453 0.0000 0.0000 0.0000 -25.6498 -6.3368 -18.4583 3.4992 11.4624 33.8558 1.3407 -7.3943 -20.7002 0.0036 0.3865 1.0621 0.0000 0.0000 0.0000 17.7145 12.7958 -28.9723 -11.6802 -18.2522 64.9714 -0.6925 6.6802 -14.8753 -0.6244 5.0566 -14.0700 -2.5969 2.3893 0.4176 -1.2890 3.0912 -3.1584 0.0152 1.5954 -3.5499 -1.1197 -0.6391 -12.1994 1.6375 -0.9712 17.6204 0.6239 -0.3880 7.4383 0.0000 0.0000 0.0000 -89.3457 -3.7933 16.9112 11.1036 -18.4468 -1.8086 -0.0000 0.0000 -12.5938 26.1770 -9.8480 -4.8058 -7.1250 0.0000 -0.0000 -0.5796 19.0324 0.3589 0.0000 0.0000 0.0000 91.5442 -18.1149 20.2778 -13.5811 22.1327 -2.6683 0.0000 0.0000 2.3427 -20.3754 -34.8659 11.9869 7.1250 -0.0000 -0.0000 16.8036 -65.8675 -8.5718
6.8332 15.2814 -37.3249 1.5575 -8.2596 7.2950 0.0000 0.0000 0.0000 -26.0706 -6.1756 -17.6797 3.4322 11.3638 33.5170 1.2672 -8.7306 -20.1698 0.1348 2.3664 6.5195 0.0000 0.0000 0.0000 17.3742 13.3492 -30.6629 -11.4013 -18.1259 64.0781 -0.7823 7.7522 -15.8802 -0.6499 5.1567 -14.3560 -3.0335 2.1845 0.6114 -1.1903 2.7968 -3.3805 0.3556 1.4679 -3.9114 -1.9200 -0.4506 -10.8128 2.8094 -0.7741 16.4848 1.1524 -0.2517 6.8288 -0.0000 0.0000 0.0000 -89.2727 -5.1903 19.2202 11.6469 -19.2730 -1.9842 -0.0000 0.0000 -13.4283 26.4311 -9.3791 -4.6313 -7.1250 0.0000 -0.0000 -0.3725 19.5289 0.2265 -0.0000 0.0000 0.0000 91.6505 -19.0272 18.2811 -12.9005 21.1412 -2.4173 0.0000 0.0000 4.6458 -20.1222 -35.0082 11.8704 7.1250 -0.0000 -0.0000 17.2466 -65.9296 -8.8282
6.8333 15.2736 -37.1088 1.2728 -7.8551 7.4685 0.0000 0.0000 0.0000 -25.9542 -5.8003 -16.7935 3.3228 11.2002 32.9579 1.2582 -9.3639 -20.1495 0.1494 2.4908 6.8641 0.0000 0.0000 0.0000 17.7431 13.7717 -32.2020 -11.0259 -17.9477 62.8657 -0.8955 7.4562 -16.9259 -1.0646 6.5596 -18.4171 -2.9378 1.9816 0.6000 -0.9185 2.5353 -3.4964 0.5907 1.3417 -4.0252 -1.9058 -0.3793 -10.4130 2.6754 -0.6560 16.2244 1.1159 -0.2090 6.6716 0.0000 0.0000 0.0000 -89.0246 -6.5287 21.5190 12.4856 -20.5289 -2.2697 -0.0000 0.0000 -14.9750 25.7347 -8.8680 -4.2496 -7.1250 0.0000 -0.0000 -0.8439 20.1540 0.5015 0.0000 0.0000 0.0000 91.7311 -19.7988 16.1948 -12.2515 20.1808 -2.1883 0.0000 0.0000 7.0510 -19.7067 -35.0277 11.6174 7.1250 -0.0000 -0.0000 17.7569 -65.8292 -9.0557
